<?xml version="1.0" encoding="UTF-8"?>
<svg id="Layer_2" data-name="Layer 2" xmlns="http://www.w3.org/2000/svg" viewBox="0 0 930.19 431">
  <defs>
    <style>
      .cls-1 {
        fill: #f16365;
      }
    </style>
  </defs>
  <g id="Layer_1-2" data-name="Layer 1">
    <g>
      <path class="cls-1" d="M151.84,301.26c-10.09,0-18.12-.14-26.13.03-19.78.41-39.29-.9-58.73-5.3-37.57-8.51-56.89-33.74-65.83-69.15-.61-2.4-.89-4.89-1.15-6.33,6.22,8.46,12.07,18.24,19.68,26.38,15.74,16.87,36.35,25.59,58.8,27.4,27.1,2.19,54.4,1.86,81.62,2.33,1.94.03,4.56-1.89,5.76-3.65,4.88-7.18,5.3-14.31,1.77-22.9-20.46-49.74-40.27-99.74-60.29-149.66-.52-1.31-.99-2.64-1.79-4.77h6.93c6.74,0,13.49.22,20.22-.09,3.68-.17,5.38.88,6.72,4.53,14.53,39.5,29.28,78.91,44.01,118.34.61,1.64,1.49,3.18,2.91,6.16,2.3-4.63,4.33-7.94,5.67-11.52,13.99-37.39,27.96-74.78,41.65-112.28,1.46-3.99,3.08-5.5,7.31-5.22,5.79.38,11.62.1,17.33.1-25.95,59.72-52.01,119.69-78.54,180.75,3.78.19,5.73.38,7.68.38,87.52-.09,175.03-.15,262.55-.33,64.25-.14,128.5-.41,192.75-.82,3.39-.02,7.36-1.17,9.94-3.21,1.89-1.5,3.12-5.67,2.44-8-.53-1.8-4.48-3.67-6.91-3.67-13.9,0-27.79.69-41.69.88-13.25.18-18.68-3.8-23.24-16.33-.23-.64-.74-1.19-1.45-2.29-4.04,3.41-7.73,6.81-11.72,9.83-16.48,12.45-34.9,16.35-54.81,10.9-23.68-6.49-31.59-28.6-29.17-47.79,3.57-28.32,22.52-37.78,46.46-42.41,13.37-2.59,26.81-5.14,39.84-8.97,9.9-2.91,11.3-5.83,10.9-16.1-.74-19.23-8.4-35.45-27.47-39.79-17.71-4.03-37.59,3.48-47.99,18.93-.72,1.06-1.18,2.38-2.1,3.19-.83.72-2.18,1.28-3.22,1.17-.58-.06-1.41-1.62-1.44-2.52-.14-5.3-.16-10.62.01-15.92.04-1.1.76-2.57,1.64-3.2,23.46-16.55,48.83-24.17,76.89-13.91,17.97,6.57,28.16,20.67,29.06,39.55.93,19.82-.51,39.74-.56,59.62-.03,13.52.29,27.06.93,40.57.43,8.91,4.74,12.8,13.56,13.21,10.23.47,20.46.73,30.69,1.13,9.17.36,17.57,2.58,21.95,11.63,4.7,9.73,4.5,19.66-1.83,28.58-4.48,6.32-11.75,8.43-19.16,9.35-3.8.47-7.68.42-11.52.43-154.52.27-309.03.51-463.55.81-10.57.02-8.47-1.79-12.71,8.85-5.39,13.51-10.36,27.2-15.6,41.02h-23.63c7.93-16.1,15.87-32.23,24.56-49.9M514.43,218.26c0,19.33,14.39,33.21,32.78,30.98,12.46-1.51,22.8-7.51,30.53-17.48,1.95-2.51,4.18-5.61,4.34-8.55.79-14.41.9-28.86,1.31-43.3.09-3.19-1.31-4.42-4.36-3.66-13.61,3.36-27.41,6.1-40.75,10.31-17.28,5.45-23.84,14.96-23.85,31.7"/>
      <path class="cls-1" d="M746.08,254.04c4.65-12.54,9.38-24.74,13.66-37.08,2.02-5.83,3.5-11.89,4.69-17.94,2.16-11.02-5.16-22.21-17.54-27.19-10.9-4.39-20.15-10.88-27.48-20.17-11.24-14.23-12.05-30.92-11.41-47.88.22-5.98.88-12.1,2.49-17.83,6.79-24.19,23.09-39.02,46.8-46.37,13.57-4.21,27.48-3.35,41.33-3.07,1.27.03,3.55,2.5,3.58,3.88.35,17.38.48,34.77.3,52.15-.02,1.73-2.07,4.24-3.8,5.02-12.05,5.43-19.21,15.51-18.29,26.47,1.08,12.88,9.38,22.55,23.18,24.62,5.31.8,11.13-2.12,16.76-3.1,2.28-.4,5.18-1.05,6.94-.06,9.79,5.56,19.31,11.59,28.94,17.43,1.4.85,2.86,1.59,4.34,2.3,3.28,1.56,6.21,1.19,7.9-2.26,1.56-3.19,1.02-6.26-2.47-7.83-5.75-2.59-11.76-4.62-17.44-7.35-6.37-3.06-12.5-6.63-17.4-9.26.68-7.71,2.24-14.35,1.62-20.78-.94-9.64-7.01-16.33-16.08-19.68-3.79-1.4-4.88-3.37-4.84-7.21.19-15.92.07-31.85.09-47.78,0-1.6.19-3.21.36-5.78,5.49,1.2,10.64,1.98,15.53,3.54,2.25.72,5.32,2.7,5.72,4.6,1.06,4.96,4.7,6.67,8.33,8.69,17.6,9.81,27.52,30.82,23.88,50.67-1.5,8.2.05,9.9,9.92,8.84-3.11,2.18-5.02,3.52-7.71,5.4,3.73,4.05,7.35,8.04,11.06,11.96,4.65,4.91,4.87,6.89.6,12.21-1.87,2.33-1.98,3.54.54,5.75,1.44,1.26,2.07,4.97,1.3,6.85-1.17,2.85-1.02,4.83.09,7.6.71,1.76-.26,4.49-1.1,6.51-1.18,2.82-3.22,5.28-4.35,8.11-.63,1.59-.14,3.62-.2,5.45-.24,6.66-3.51,10.13-10.28,10.04-8.21-.11-16.42-.55-24.61-1.17-11.05-.83-18.34,3.39-22.01,13.85-2.28,6.51-4.01,13.23-5.56,19.95-.76,3.29-2.35,4.95-5.49,5.95-16.19,5.17-32.36,10.7-46.48,20.33-5.35,3.65-9.71,4.88-15.4,1.62"/>
      <path class="cls-1" d="M378.76,120.74c.11-1.57.33-3.14.32-4.7-.12-31.84-.23-63.67-.43-95.51-.03-5.47-.6-10.94-.53-16.41.02-1.35,1.54-3.81,2.43-3.84,8.84-.29,17.69-.17,25.57-.17-.88,87.36-1.75,174.09-2.62,260.87h-24.38v-27.77c-.49-.12-.98-.25-1.47-.38-2.86,3.89-5.85,7.71-8.57,11.69-9.47,13.85-23.38,19.28-39.32,20.39-12.3.85-24.4-.15-35.73-5.92-18.68-9.51-29.62-25.07-34.77-44.83-7.15-27.46-5.75-54.56,5.37-80.85,11.52-27.23,39.91-44.11,69.17-40.87,17.05,1.89,30.62,10.18,40.46,24.35,1.02,1.47,2.14,2.87,3.21,4.3.43-.12.86-.25,1.29-.37M285.91,180.73c-.33,16.78.87,32.79,8.81,47.31,8.83,16.15,22.05,24.76,41.25,22.55,16.05-1.85,26.37-11.47,32.83-25.05,13.19-27.75,13.57-56.62,5.01-85.77-3.36-11.44-9.94-21-20.48-26.73-21.01-11.43-50.09-5.65-60.73,24.26-5.05,14.2-7.35,28.92-6.69,43.44"/>
      <path class="cls-1" d="M826.34,267.42c-8.36-4.09-15.36-2.14-22.19-.94-9.5,1.67-18.89,3.99-28.36,5.81-2.66.51-5.96,1.19-8.08.09-3.09-1.61-5.82-4.48-7.7-7.45-.52-.82,2.12-4.6,4.06-5.84,14.26-9.08,29.43-16.41,46.13-19.44,8.1-1.47,16.57-.95,24.88-1.21,1.22-.04,2.6.34,3.68.92,14.43,7.78,26.11.66,36.35-8.04,22-18.7,33.46-43.35,36.88-71.78,4.27-35.51-5.11-67.35-27.2-95.23-19.16-24.18-44.56-38.48-74.75-44.16-25.16-4.74-50.1-4.11-74.4,4.85-27.87,10.28-50.13,28.14-68.5,51.17-.68.86-1.32,1.75-2.01,2.6-.77.94-1.58,1.84-2.52,2.63,12.11-22.52,29.31-40.2,50.95-53.75,26.61-16.66,56.08-22.45,86.62-19.58,67.26,6.32,117.03,55.17,127.47,115.67,7.66,44.39-1.82,84.61-30.76,119.48-21.82,26.3-50.08,42.2-83.7,48.07-44.46,7.76-83.83-3.96-118.59-32.23-1.13-.92-2.44-1.84-3.11-3.07-1.28-2.36-2.17-4.93-3.22-7.42,2.66-.83,5.35-2.43,7.95-2.29,2.72.14,5.46,1.74,8.02,3.04,13.61,6.94,26.55,15.49,42.05,17.89,6.01.93,11.24,2.3,16.18,6.61,2.67,2.33,8.42,2.19,12.55,1.58,12.59-1.85,25.06-4.56,37.61-6.74,3.99-.69,8.1-.76,13.71-1.24"/>
      <path class="cls-1" d="M93.64,261.07h-30.23c.45-5.86,1.27-11.96,1.32-18.06.37-48.81.72-97.62.8-146.43.04-26.14-.42-52.28-.73-78.42-.05-4.56-.17-9.16-.81-13.66-.51-3.62.77-4.52,4.09-4.45,7.62.15,15.25.23,22.86-.03,3.95-.14,5.05,1.31,4.93,5.08-.77,24.1-1.4,48.2-2.01,72.31-.19,7.68-.18,15.36-.23,23.04-.26,41.5-.57,83.01-.72,124.51-.04,10.22.48,20.45.72,30.68.04,1.77,0,3.54,0,5.44"/>
      <path class="cls-1" d="M431.43,260.84c3.25-54.96,3.62-109.89.61-165.22,9.65,0,19.09,0,28.52,0,4.73,0,3.31,3.59,3.2,5.98-.57,12.22-1.78,24.42-1.98,36.65-.5,31.46-.64,62.92-.78,94.38-.04,7.85.36,15.71.72,23.56.19,4.09-.36,5.57-5.47,4.93-8.03-1.01-16.28-.27-24.82-.27"/>
      <path class="cls-1" d="M228.12,369.24c-5.8-2.29-11.08-5.3-16.73-6.44-14.23-2.86-25.48,6.15-28.87,17.5-2.57,8.61-3,17.2-.43,25.84,5.24,17.63,24.76,24.53,41.16,14.57,2.01-1.22,3.89-2.64,6.32-4.29.82,3.96.3,6.89-3.05,9.04-18.34,11.78-47.11,3.97-54.72-15.89-8.24-21.53-.5-51.24,33.79-52.46,5.24-.19,10.58.32,15.77,1.16,9.41,1.52,9.62,2.16,6.76,10.97"/>
      <path class="cls-1" d="M587.86,416.59c.03,5.49-1.75,8.52-6.14,10.07-14.08,4.95-27.96,5.71-40.96-2.78-11.93-7.8-16.95-24.01-13.08-40.1,3.27-13.55,13.8-23.92,27.64-25.49,8.21-.94,16.74-.72,24.93.39,8.48,1.15,8.77,2.74,5.37,10.53-5.26-2.19-10.33-5.24-15.79-6.39-16.33-3.43-29.48,7.81-31.01,23.59-.66,6.75-.51,14.02,1.3,20.49,4.51,16.16,22.3,22.93,38.15,15.24,3.06-1.49,5.92-3.4,9.6-5.55"/>
      <path class="cls-1" d="M262.32,378.93c13.26-1.33,24.88,9.2,24.71,24.49-.17,15.38-10.66,26.29-25.55,26.3-14.98,0-25.23-10.1-25.18-24.98.05-15.3,9.9-26.68,26.02-25.81M277.76,404.32c-1.15-4.74-1.87-8.85-3.16-12.77-1.87-5.7-6.56-8.29-12.11-8.7-5.32-.4-9.68,2.34-12.21,6.92-5.16,9.39-5.74,19.2-.48,28.71,5.15,9.29,18.3,9.25,23.24-.14,2.31-4.38,3.24-9.49,4.71-14.02"/>
      <path class="cls-1" d="M638.13,419.35c-1.22,2.13-1.95,4.89-3.74,6.28-13.79,10.63-35.34,3.66-39.27-12.99-2.33-9.88-1.59-20.09,6.21-27.59,6.59-6.33,15.19-7.42,24.07-5.06,8.77,2.34,15.6,12.38,14.06,21.34-.22,1.26-2.84,2.94-4.4,2.99-8.59.29-17.19.24-25.78.11-4.03-.06-5.46,1.24-4.95,5.54,1.65,13.71,16.39,19.67,28.25,11.2,1.29-.92,2.47-1.99,3.7-2.99.61.39,1.23.78,1.84,1.18M616.61,399.86v-.03c2.73,0,5.47-.17,8.19.04,4.45.35,5.24-2.05,4.74-5.72-.71-5.18-4.52-9.66-9.01-10.48-5.64-1.04-10.75,1.5-13.65,6.76-4.15,7.56-3.1,9.4,5.35,9.42,1.46,0,2.91,0,4.37,0"/>
      <path class="cls-1" d="M769.62,419.35c-.56,1.86-.53,4.45-1.78,5.47-9.26,7.54-30.43,7.48-37.32-4.27-6.2-10.57-5.93-21.31-.05-31.69,4.86-8.58,16.85-12.01,27.68-8.76,8.42,2.53,13.45,10.17,13.46,19.75,0,3.66-1.3,4.74-4.82,4.66-8.41-.19-16.82.15-25.22-.14-4.7-.16-5.6,2.04-5.17,5.98,1.4,12.8,15.59,18.84,27.19,11.52,1.52-.96,2.93-2.1,4.4-3.16.54.21,1.09.42,1.64.63M749.01,399.86v-.05c2.91,0,5.82-.03,8.73,0,3.12.03,4.57-.78,3.93-4.53-1.19-6.91-4.08-10.9-9.47-11.66-6.7-.94-11.41,2.08-14.24,9.14-2.42,6.02-1.8,7,4.51,7.08,2.18.03,4.36,0,6.55,0"/>
      <path class="cls-1" d="M657.79,383.28c5.85-1.52,11.09-3.78,16.43-4.08,9.08-.5,15.63,6.02,15.91,15.19.31,10.21.04,20.43.08,30.65.02,5.08-3.79,3.23-6.34,3.53-3.47.4-3.8-1.77-3.67-4.51.4-8.58,1.06-17.16.9-25.73-.19-10.06-6.22-14.69-15.31-12.53-5.4,1.29-8.26,5.68-8.45,13.75-.19,8.05-.17,16.11-.02,24.16.06,3.35-.71,5-4.54,5-3.75,0-4.63-1.45-4.58-4.91.18-12.41.01-24.83.21-37.25.04-2.31-1.85-5.95,2.73-6.47,3.44-.39,6.78-.43,6.66,3.19"/>
      <path class="cls-1" d="M306.04,385.38c6.85-5.93,13.88-8.19,21.83-5.21,5.96,2.23,9.79,6.37,9.82,13.07.04,10.41-.18,20.83-.07,31.24.04,3.62-1.73,4.12-4.76,4.19-3.43.08-4.54-1.3-4.34-4.55.38-6.19.69-12.38.77-18.58.04-3.44-.33-6.91-.74-10.33-.79-6.56-4.51-9.98-10.71-10.08-6.12-.1-11.44,3.8-11.94,9.8-.72,8.71-1.08,17.51-.82,26.24.25,8.13.07,8.6-8.39,6.79,0-14.8-.17-29.53.08-44.25.11-6.53,5.48-2.4,8.51-4.03.25,1.9.43,3.28.75,5.71"/>
      <path class="cls-1" d="M465.04,36.86c.02,10.83-7.09,18.38-17.28,18.37-10.08-.01-17.27-7.69-17.28-18.43,0-10.56,7.37-18.13,17.64-18.09,9.83.04,16.91,7.63,16.92,18.16"/>
      <path class="cls-1" d="M421.2,425.31c-4.92,4.88-8.98,4.62-14.25.37-6.43,1.5-11.89,3.42-17.48,3.91-6.35.56-11.61-3.84-12.53-9.1-1.35-7.74,1.34-13.77,7.9-16.16,4.23-1.54,8.79-2.19,13.22-3.19,8.15-1.84,9.27-2.92,8.22-7.99-1.37-6.58-7.19-10.97-13.2-9.08-3.97,1.25-7.47,3.98-11.36,6.15-1.55-3.74-.05-6.27,3.67-8.38,5.93-3.35,12.3-3.67,18.59-2.48,7.29,1.38,11.83,8.99,11.25,17.16-.37,5.28-.64,10.58-.7,15.87-.06,5.38-1.62,11.62,6.67,12.93M405.37,403.73c-5.27,1.57-10.75,2.6-15.68,4.85-3.86,1.76-4.61,5.99-3.39,9.95,1.35,4.4,4.81,6.23,9.29,5.89,8.82-.68,12.76-8.31,9.78-20.69"/>
      <path class="cls-1" d="M468.97,419.85c-.92,2.05-1.28,4.8-2.84,6.04-9.98,7.88-30.12,4.34-36.83-6.2-8.19-12.86-4.33-30.65,8.28-37.31,8.17-4.32,16.82-4.51,25.51-1.77,6.07,1.92,6.44,3.69,2.97,8.7-4.66-1.97-8.98-4.73-13.65-5.56-6.96-1.24-11.84,2.79-14.78,8.92-2.96,6.17-3.29,12.67-1.23,19.17,4.25,13.44,17.43,17.49,28.68,8.9.71-.54,1.43-1.08,2.15-1.62.58.25,1.17.49,1.75.74"/>
      <path class="cls-1" d="M713.42,385.76c0,11.34-.29,21.9.14,32.43.17,4.3,2.69,7.55,7.95,7,1.14-.12,2.35.35,4.55.72-4.24,4.84-9.1,4.41-13.33,3.4-5.23-1.25-8.33-5.34-8.33-10.87,0-8.57.3-17.15.66-25.71.19-4.62-.47-8.15-6.81-6.96-.21-.5-.43-1-.64-1.5,1.3-1.18,2.68-2.3,3.89-3.57,1.19-1.26,3.08-2.64,3.14-4.03.31-8.05.46-8.39,9.89-9.93-.37,2.66-.73,5.06-1.04,7.47-.69,5.4.54,6.54,5.81,6.46,1.65-.02,4.59,1.07,4.75,2.02.63,3.82-2.6,2.96-4.82,3.07-1.63.08-3.26.02-5.79.02"/>
      <path class="cls-1" d="M352.74,386.21c-1.82-.22-3.01-.1-3.94-.54-.99-.45-1.73-1.43-2.58-2.18.76-.85,1.48-2.39,2.28-2.44,3.72-.2,4.34-2.21,4.29-5.45-.1-6.73,1.22-7.89,8.92-8.52,0,2.54.23,5.08-.05,7.57-.55,4.85,1.28,6.88,6.18,5.9,2.13-.43,4.95-1.29,4.57,2.25-.12,1.13-2.81,2.34-4.52,2.84-1.66.49-3.56.11-6.01.11,0,11.67-.31,22.88.3,34.04.1,1.89,3.99,3.84,6.43,5.21,1.23.69,3.16.12,4.87.12-1.44,4.31-7.54,6.14-13.23,4.07-4.99-1.81-7.64-5.47-7.65-10.81-.01-8.76.09-17.52.13-26.28.01-1.96,0-3.91,0-5.9"/>
      <path class="cls-1" d="M500.18,426.74c-4.12,3.62-8.9,3.61-13.57,2.41-4.64-1.19-7.6-4.52-7.66-9.51-.11-8.95.08-17.91.14-26.87.01-2.15,0-4.29,0-6.51-1.55-.23-2.53-.17-3.3-.54-1.15-.55-2.15-1.41-3.21-2.14.9-.93,1.67-2.47,2.71-2.68,2.87-.57,4.35-1.95,3.74-4.85-1.44-6.87,2.81-8.46,8.68-9.35v13.55h10.73v4.82c-.57.29-.88.58-1.21.59q-9.94.45-9.89,10.62c.03,6.58-.25,13.19.18,19.75.47,7.33,2.19,8.68,9.4,9.12.72.04,1.44.13,2.13.33.29.08.47.51,1.13,1.26"/>
      <path class="cls-1" d="M789.65,386.4c4.37-4.77,8.39-9.03,14.15-6.78,1.36.53.95,5.58,1.39,8.78-11.76-1.94-16.01,1.8-16.07,13.01-.04,7.51-.15,15.01.06,22.51.1,3.61-1.16,4.81-4.76,4.77-3.43-.03-4.38-1.34-4.36-4.59.12-14.45.05-28.9.05-43.74h8.62c.21,1.4.47,3.11.91,6.03"/>
    </g>
  </g>
</svg>